<svg version="1.0" xmlns="http://www.w3.org/2000/svg" width="100%" height="100%" viewBox="0 0 1280.000000 767.000000" preserveAspectRatio="xMidYMid meet">
    <g transform="translate(0.000000,767.000000) scale(0.100000,-0.100000)" fill="currentColor" stroke="none">
        <path d="M8956 6610 c-614 -779 -865 -1108 -1334 -1744 -317 -431 -580 -782 -584 -780 -4 2 -259 355 -568 784 l-561 780 -125 0 c-68 0 -124 -2 -124 -5 0 -3 279 -393 621 -867 369 -512 618 -866 615 -875 -4 -11 -947 -1306 -1268 -1741 l-68 -92 132 1 133 0 605 834 c333 459 607 834 610 835 3 0 278 -376 610 -835 l605 -835 133 0 133 0 -33 46 c-18 26 -318 438 -665 918 -348 479 -631 876 -629 882 4 10 2494 3611 2518 3642 6 6 8 12 6 12 -3 0 -346 -432 -762 -960z"/>
        <path d="M10 3860 l0 -1790 108 0 109 0 6 413 c4 226 7 970 7 1652 0 1073 2 1237 14 1225 8 -8 522 -753 1143 -1655 l1128 -1640 749 -995 c752 -998 766 -1018 766 -1009 0 2 -843 1260 -1874 2794 l-1873 2790 -142 3 -141 3 0 -1791z"/>
        <path d="M3030 3860 l0 -1790 1215 0 1215 0 0 95 0 95 -1105 0 -1105 0 0 790 0 790 1025 0 1025 0 0 95 0 95 -1025 0 -1025 0 0 715 0 715 1095 0 1095 0 0 95 0 95 -1205 0 -1205 0 0 -1790z"/>
        <path d="M8620 5555 l0 -95 630 0 630 0 0 -1695 0 -1695 110 0 110 0 0 1695 0 1695 630 0 630 0 0 95 0 95 -1370 0 -1370 0 0 -95z"/>
        <path d="M12407 3110 c-58 -15 -111 -45 -145 -84 -87 -100 -59 -256 58 -316 20 -10 84 -31 141 -45 166 -42 199 -65 199 -136 0 -30 -7 -43 -35 -68 -44 -38 -67 -44 -155 -39 -77 4 -110 22 -145 76 -19 29 -24 31 -79 32 -57 0 -58 -1 -52 -25 30 -117 119 -183 261 -193 198 -13 327 81 327 236 0 69 -17 106 -66 150 -34 30 -72 44 -262 97 -83 24 -118 52 -118 97 0 79 65 123 171 116 71 -4 109 -26 133 -76 14 -30 18 -32 73 -32 65 0 69 7 38 75 -24 52 -64 89 -126 116 -56 25 -159 34 -218 19z"/>
        <path d="M11910 2803 c0 -218 -4 -305 -13 -323 -18 -36 -74 -62 -121 -56 -43 5 -93 46 -98 80 -3 18 -11 21 -60 24 -58 3 -58 3 -58 -25 1 -71 64 -151 139 -178 95 -33 203 -13 266 50 62 61 65 83 65 424 l0 301 -60 0 -60 0 0 -297z"/>
        <path d="M11303 2468 c-28 -13 -46 -58 -37 -92 14 -57 86 -74 129 -31 39 38 27 102 -22 124 -29 13 -41 13 -70 -1z"/>
    </g>
</svg>
