<svg version="1.0" xmlns="http://www.w3.org/2000/svg" viewBox="0 0 250.000000 250.000000" preserveAspectRatio="xMidYMid meet">
    <g transform="translate(0.000000,250.000000) scale(0.100000,-0.100000)" fill="currentColor" stroke="none">
        <path d="M1000 2375 l0 -125 -125 0 -125 0 0 -125 0 -125 -125 0 -125 0 0 -125 0 -125 -125 0 -125 0 0 -125 0 -125 -125 0 -125 0 0 -250 0 -250 125 0 125 0 0 -125 0 -125 125 0 125 0 0 -125 0 -125 125 0 125 0 0 -125 0 -125 125 0 125 0 0 -125 0 -125 250 0 250 0 0 125 0 125 125 0 125 0 0 125 0 125 125 0 125 0 0 125 0 125 125 0 125 0 0 125 0 125 125 0 125 0 0 250 0 250 -125 0 -125 0 0 125 0 125 -125 0 -125 0 0 125 0 125 -125 0 -125 0 0 125 0 125 -125 0 -125 0 0 125 0 125 -250 0 -250 0 0 -125z m500 -250 l0 -125 125 0 125 0 0 -125 0 -125 125 0 125 0 0 -125 0 -125 125 0 125 0 0 -250 0 -250 -125 0 -125 0 0 -125 0 -125 -125 0 -125 0 0 -125 0 -125 -125 0 -125 0 0 -125 0 -125 -250 0 -250 0 0 125 0 125 -125 0 -125 0 0 125 0 125 -125 0 -125 0 0 125 0 125 -125 0 -125 0 0 250 0 250 125 0 125 0 0 125 0 125 125 0 125 0 0 125 0 125 125 0 125 0 0 125 0 125 250 0 250 0 0 -125z"/>
    </g>
</svg>
